%TF.GenerationSoftware,KiCad,Pcbnew,9.0.2*%
%TF.CreationDate,2025-06-03T16:56:12+08:00*%
%TF.ProjectId,experiment,65787065-7269-46d6-956e-742e6b696361,v1.0.0*%
%TF.SameCoordinates,Original*%
%TF.FileFunction,Copper,L2,Bot*%
%TF.FilePolarity,Positive*%
%FSLAX46Y46*%
G04 Gerber Fmt 4.6, Leading zero omitted, Abs format (unit mm)*
G04 Created by KiCad (PCBNEW 9.0.2) date 2025-06-03 16:56:12*
%MOMM*%
%LPD*%
G01*
G04 APERTURE LIST*
G04 Aperture macros list*
%AMRoundRect*
0 Rectangle with rounded corners*
0 $1 Rounding radius*
0 $2 $3 $4 $5 $6 $7 $8 $9 X,Y pos of 4 corners*
0 Add a 4 corners polygon primitive as box body*
4,1,4,$2,$3,$4,$5,$6,$7,$8,$9,$2,$3,0*
0 Add four circle primitives for the rounded corners*
1,1,$1+$1,$2,$3*
1,1,$1+$1,$4,$5*
1,1,$1+$1,$6,$7*
1,1,$1+$1,$8,$9*
0 Add four rect primitives between the rounded corners*
20,1,$1+$1,$2,$3,$4,$5,0*
20,1,$1+$1,$4,$5,$6,$7,0*
20,1,$1+$1,$6,$7,$8,$9,0*
20,1,$1+$1,$8,$9,$2,$3,0*%
%AMRotRect*
0 Rectangle, with rotation*
0 The origin of the aperture is its center*
0 $1 length*
0 $2 width*
0 $3 Rotation angle, in degrees counterclockwise*
0 Add horizontal line*
21,1,$1,$2,0,0,$3*%
G04 Aperture macros list end*
%TA.AperFunction,ComponentPad*%
%ADD10C,2.286000*%
%TD*%
%TA.AperFunction,ComponentPad*%
%ADD11R,1.778000X1.778000*%
%TD*%
%TA.AperFunction,SMDPad,CuDef*%
%ADD12R,0.900000X1.200000*%
%TD*%
%TA.AperFunction,ComponentPad*%
%ADD13C,1.905000*%
%TD*%
%TA.AperFunction,SMDPad,CuDef*%
%ADD14R,0.800000X1.000000*%
%TD*%
%TA.AperFunction,SMDPad,CuDef*%
%ADD15R,1.500000X0.700000*%
%TD*%
%TA.AperFunction,ComponentPad*%
%ADD16RoundRect,0.250000X-0.350000X-0.625000X0.350000X-0.625000X0.350000X0.625000X-0.350000X0.625000X0*%
%TD*%
%TA.AperFunction,ComponentPad*%
%ADD17O,1.200000X1.750000*%
%TD*%
%TA.AperFunction,ComponentPad*%
%ADD18RotRect,1.778000X1.778000X170.000000*%
%TD*%
%TA.AperFunction,SMDPad,CuDef*%
%ADD19RotRect,0.900000X1.200000X170.000000*%
%TD*%
%TA.AperFunction,ComponentPad*%
%ADD20R,1.400000X1.500000*%
%TD*%
%TA.AperFunction,ComponentPad*%
%ADD21C,1.752600*%
%TD*%
%TA.AperFunction,ComponentPad*%
%ADD22RotRect,1.778000X1.778000X246.000000*%
%TD*%
%TA.AperFunction,SMDPad,CuDef*%
%ADD23RotRect,0.900000X1.200000X246.000000*%
%TD*%
%TA.AperFunction,Conductor*%
%ADD24C,0.250000*%
%TD*%
G04 APERTURE END LIST*
D10*
%TO.P,S3,1*%
%TO.N,P022*%
X130810000Y-109320000D03*
X135890000Y-109320000D03*
%TO.P,S3,2*%
%TO.N,pinkyfar_home*%
X129540000Y-111860000D03*
X137160000Y-111860000D03*
%TD*%
%TO.P,S7,1*%
%TO.N,P024*%
X149810000Y-109320000D03*
X154890000Y-109320000D03*
%TO.P,S7,2*%
%TO.N,pinky_home*%
X148540000Y-111860000D03*
X156160000Y-111860000D03*
%TD*%
%TO.P,S13,1*%
%TO.N,P011*%
X188812500Y-101320000D03*
X193892500Y-101320000D03*
%TO.P,S13,2*%
%TO.N,middle_home*%
X187542500Y-103860000D03*
X195162500Y-103860000D03*
%TD*%
D11*
%TO.P,D20,1*%
%TO.N,P029*%
X233162500Y-98400000D03*
D12*
X231002500Y-98400000D03*
%TO.P,D20,2*%
%TO.N,indexfar_top*%
X227702500Y-98400000D03*
D13*
X225542500Y-98400000D03*
%TD*%
D11*
%TO.P,D5,1*%
%TO.N,P113*%
X156160000Y-157400000D03*
D12*
X154000000Y-157400000D03*
%TO.P,D5,2*%
%TO.N,pinky_mod*%
X150700000Y-157400000D03*
D13*
X148540000Y-157400000D03*
%TD*%
D10*
%TO.P,S12,1*%
%TO.N,P011*%
X188812500Y-120320000D03*
X193892500Y-120320000D03*
%TO.P,S12,2*%
%TO.N,middle_low*%
X187542500Y-122860000D03*
X195162500Y-122860000D03*
%TD*%
D11*
%TO.P,D10,1*%
%TO.N,P002*%
X176162500Y-115400000D03*
D12*
X174002500Y-115400000D03*
%TO.P,D10,2*%
%TO.N,ring_home*%
X170702500Y-115400000D03*
D13*
X168542500Y-115400000D03*
%TD*%
D11*
%TO.P,D8,1*%
%TO.N,P029*%
X156160000Y-100400000D03*
D12*
X154000000Y-100400000D03*
%TO.P,D8,2*%
%TO.N,pinky_top*%
X150700000Y-100400000D03*
D13*
X148540000Y-100400000D03*
%TD*%
D14*
%TO.P,T1,*%
%TO.N,*%
X261338500Y-97050000D03*
X263548500Y-97050000D03*
D15*
X260688500Y-95650000D03*
D14*
X261338500Y-89750000D03*
X263548500Y-89750000D03*
D15*
%TO.P,T1,1*%
%TO.N,pos*%
X260688500Y-91150000D03*
%TO.P,T1,2*%
%TO.N,RAW*%
X260688500Y-94150000D03*
%TD*%
D10*
%TO.P,S19,1*%
%TO.N,P106*%
X226812500Y-107320000D03*
X231892500Y-107320000D03*
%TO.P,S19,2*%
%TO.N,indexfar_home*%
X225542500Y-109860000D03*
X233162500Y-109860000D03*
%TD*%
D11*
%TO.P,D17,1*%
%TO.N,P029*%
X214162500Y-95400000D03*
D12*
X212002500Y-95400000D03*
%TO.P,D17,2*%
%TO.N,index_top*%
X208702500Y-95400000D03*
D13*
X206542500Y-95400000D03*
%TD*%
D10*
%TO.P,S1,1*%
%TO.N,P022*%
X130810000Y-147320000D03*
X135890000Y-147320000D03*
%TO.P,S1,2*%
%TO.N,pinkyfar_mod*%
X129540000Y-149860000D03*
X137160000Y-149860000D03*
%TD*%
%TO.P,S17,1*%
%TO.N,P104*%
X207812500Y-85320000D03*
X212892500Y-85320000D03*
%TO.P,S17,2*%
%TO.N,index_top*%
X206542500Y-87860000D03*
X214162500Y-87860000D03*
%TD*%
%TO.P,S11,1*%
%TO.N,P100*%
X169812500Y-86320000D03*
X174892500Y-86320000D03*
%TO.P,S11,2*%
%TO.N,ring_top*%
X168542500Y-88860000D03*
X176162500Y-88860000D03*
%TD*%
D11*
%TO.P,D4,1*%
%TO.N,P029*%
X137160000Y-100400000D03*
D12*
X135000000Y-100400000D03*
%TO.P,D4,2*%
%TO.N,pinkyfar_top*%
X131700000Y-100400000D03*
D13*
X129540000Y-100400000D03*
%TD*%
D11*
%TO.P,D12,1*%
%TO.N,P115*%
X195162500Y-130400000D03*
D12*
X193002500Y-130400000D03*
%TO.P,D12,2*%
%TO.N,middle_low*%
X189702500Y-130400000D03*
D13*
X187542500Y-130400000D03*
%TD*%
D10*
%TO.P,S16,1*%
%TO.N,P104*%
X207812500Y-104320000D03*
X212892500Y-104320000D03*
%TO.P,S16,2*%
%TO.N,index_home*%
X206542500Y-106860000D03*
X214162500Y-106860000D03*
%TD*%
%TO.P,S21,1*%
%TO.N,P011*%
X200142500Y-151320000D03*
X205222500Y-151320000D03*
%TO.P,S21,2*%
%TO.N,layer2_layerkey*%
X198872500Y-153860000D03*
X206492500Y-153860000D03*
%TD*%
D11*
%TO.P,D15,1*%
%TO.N,P115*%
X214162500Y-133400000D03*
D12*
X212002500Y-133400000D03*
%TO.P,D15,2*%
%TO.N,index_low*%
X208702500Y-133400000D03*
D13*
X206542500Y-133400000D03*
%TD*%
D10*
%TO.P,S20,1*%
%TO.N,P106*%
X226812500Y-88320000D03*
X231892500Y-88320000D03*
%TO.P,S20,2*%
%TO.N,indexfar_top*%
X225542500Y-90860000D03*
X233162500Y-90860000D03*
%TD*%
D11*
%TO.P,D18,1*%
%TO.N,P115*%
X233162500Y-136400000D03*
D12*
X231002500Y-136400000D03*
%TO.P,D18,2*%
%TO.N,indexfar_low*%
X227702500Y-136400000D03*
D13*
X225542500Y-136400000D03*
%TD*%
D11*
%TO.P,D11,1*%
%TO.N,P029*%
X176162500Y-96400000D03*
D12*
X174002500Y-96400000D03*
%TO.P,D11,2*%
%TO.N,ring_top*%
X170702500Y-96400000D03*
D13*
X168542500Y-96400000D03*
%TD*%
D16*
%TO.P,_1,1*%
%TO.N,pos*%
X251000000Y-117000000D03*
D17*
%TO.P,_1,2*%
%TO.N,GND*%
X253000000Y-117000000D03*
%TD*%
D11*
%TO.P,D13,1*%
%TO.N,P002*%
X195162500Y-111400000D03*
D12*
X193002500Y-111400000D03*
%TO.P,D13,2*%
%TO.N,middle_home*%
X189702500Y-111400000D03*
D13*
X187542500Y-111400000D03*
%TD*%
D11*
%TO.P,D19,1*%
%TO.N,P002*%
X233162500Y-117400000D03*
D12*
X231002500Y-117400000D03*
%TO.P,D19,2*%
%TO.N,indexfar_home*%
X227702500Y-117400000D03*
D13*
X225542500Y-117400000D03*
%TD*%
D11*
%TO.P,D3,1*%
%TO.N,P002*%
X137160000Y-119400000D03*
D12*
X135000000Y-119400000D03*
%TO.P,D3,2*%
%TO.N,pinkyfar_home*%
X131700000Y-119400000D03*
D13*
X129540000Y-119400000D03*
%TD*%
D11*
%TO.P,D14,1*%
%TO.N,P029*%
X195162500Y-92400000D03*
D12*
X193002500Y-92400000D03*
%TO.P,D14,2*%
%TO.N,middle_top*%
X189702500Y-92400000D03*
D13*
X187542500Y-92400000D03*
%TD*%
D18*
%TO.P,D22,1*%
%TO.N,P113*%
X226275522Y-163810147D03*
D19*
X224148335Y-163435066D03*
%TO.P,D22,2*%
%TO.N,layer1_layerkey*%
X220898469Y-162862028D03*
D13*
X218771282Y-162486947D03*
%TD*%
D11*
%TO.P,D9,1*%
%TO.N,P115*%
X176162500Y-134400000D03*
D12*
X174002500Y-134400000D03*
%TO.P,D9,2*%
%TO.N,ring_low*%
X170702500Y-134400000D03*
D13*
X168542500Y-134400000D03*
%TD*%
D11*
%TO.P,D2,1*%
%TO.N,P115*%
X137160000Y-138400000D03*
D12*
X135000000Y-138400000D03*
%TO.P,D2,2*%
%TO.N,pinkyfar_low*%
X131700000Y-138400000D03*
D13*
X129540000Y-138400000D03*
%TD*%
D10*
%TO.P,S5,1*%
%TO.N,P024*%
X149810000Y-147320000D03*
X154890000Y-147320000D03*
%TO.P,S5,2*%
%TO.N,pinky_mod*%
X148540000Y-149860000D03*
X156160000Y-149860000D03*
%TD*%
D11*
%TO.P,D16,1*%
%TO.N,P002*%
X214162500Y-114400000D03*
D12*
X212002500Y-114400000D03*
%TO.P,D16,2*%
%TO.N,index_home*%
X208702500Y-114400000D03*
D13*
X206542500Y-114400000D03*
%TD*%
D10*
%TO.P,S2,1*%
%TO.N,P022*%
X130810000Y-128320000D03*
X135890000Y-128320000D03*
%TO.P,S2,2*%
%TO.N,pinkyfar_low*%
X129540000Y-130860000D03*
X137160000Y-130860000D03*
%TD*%
D11*
%TO.P,D7,1*%
%TO.N,P002*%
X156160000Y-119400000D03*
D12*
X154000000Y-119400000D03*
%TO.P,D7,2*%
%TO.N,pinky_home*%
X150700000Y-119400000D03*
D13*
X148540000Y-119400000D03*
%TD*%
D10*
%TO.P,S6,1*%
%TO.N,P024*%
X149810000Y-128320000D03*
X154890000Y-128320000D03*
%TO.P,S6,2*%
%TO.N,pinky_low*%
X148540000Y-130860000D03*
X156160000Y-130860000D03*
%TD*%
%TO.P,S10,1*%
%TO.N,P100*%
X169812500Y-105320000D03*
X174892500Y-105320000D03*
%TO.P,S10,2*%
%TO.N,ring_home*%
X168542500Y-107860000D03*
X176162500Y-107860000D03*
%TD*%
%TO.P,S18,1*%
%TO.N,P106*%
X226812500Y-126320000D03*
X231892500Y-126320000D03*
%TO.P,S18,2*%
%TO.N,indexfar_low*%
X225542500Y-128860000D03*
X233162500Y-128860000D03*
%TD*%
%TO.P,S15,1*%
%TO.N,P104*%
X207812500Y-123320000D03*
X212892500Y-123320000D03*
%TO.P,S15,2*%
%TO.N,index_low*%
X206542500Y-125860000D03*
X214162500Y-125860000D03*
%TD*%
D11*
%TO.P,D21,1*%
%TO.N,P113*%
X206492500Y-161400000D03*
D12*
X204332500Y-161400000D03*
%TO.P,D21,2*%
%TO.N,layer2_layerkey*%
X201032500Y-161400000D03*
D13*
X198872500Y-161400000D03*
%TD*%
D20*
%TO.P,S24,1*%
%TO.N,RST*%
X261737500Y-103485000D03*
%TO.P,S24,2*%
%TO.N,GND*%
X261737500Y-109985000D03*
%TD*%
D11*
%TO.P,D1,1*%
%TO.N,P113*%
X137160000Y-157400000D03*
D12*
X135000000Y-157400000D03*
%TO.P,D1,2*%
%TO.N,pinkyfar_mod*%
X131700000Y-157400000D03*
D13*
X129540000Y-157400000D03*
%TD*%
D11*
%TO.P,D6,1*%
%TO.N,P115*%
X156160000Y-138400000D03*
D12*
X154000000Y-138400000D03*
%TO.P,D6,2*%
%TO.N,pinky_low*%
X150700000Y-138400000D03*
D13*
X148540000Y-138400000D03*
%TD*%
D10*
%TO.P,S23,1*%
%TO.N,P106*%
X240998353Y-159902780D03*
X243064575Y-155261969D03*
%TO.P,S23,2*%
%TO.N,space_layerkey*%
X242802203Y-162096094D03*
X245901536Y-155134878D03*
%TD*%
%TO.P,S4,1*%
%TO.N,P022*%
X130810000Y-90320000D03*
X135890000Y-90320000D03*
%TO.P,S4,2*%
%TO.N,pinkyfar_top*%
X129540000Y-92860000D03*
X137160000Y-92860000D03*
%TD*%
%TO.P,S22,1*%
%TO.N,P104*%
X221772364Y-152780618D03*
X226775187Y-153662751D03*
%TO.P,S22,2*%
%TO.N,layer1_layerkey*%
X220080592Y-155061497D03*
X227584827Y-156384696D03*
%TD*%
D21*
%TO.P,MCU1,1*%
%TO.N,P006*%
X256022500Y-86097500D03*
%TO.P,MCU1,2*%
%TO.N,P008*%
X256022500Y-88637500D03*
%TO.P,MCU1,3*%
%TO.N,GND*%
X256022500Y-91177500D03*
%TO.P,MCU1,4*%
X256022500Y-93717500D03*
%TO.P,MCU1,5*%
%TO.N,P017*%
X256022500Y-96257500D03*
%TO.P,MCU1,6*%
%TO.N,P020*%
X256022500Y-98797500D03*
%TO.P,MCU1,7*%
%TO.N,P022*%
X256022500Y-101337500D03*
%TO.P,MCU1,8*%
%TO.N,P024*%
X256022500Y-103877500D03*
%TO.P,MCU1,9*%
%TO.N,P100*%
X256022500Y-106417500D03*
%TO.P,MCU1,10*%
%TO.N,P011*%
X256022500Y-108957500D03*
%TO.P,MCU1,11*%
%TO.N,P104*%
X256022500Y-111497500D03*
%TO.P,MCU1,12*%
%TO.N,P106*%
X256022500Y-114037500D03*
%TO.P,MCU1,13*%
%TO.N,P009*%
X240782500Y-114037500D03*
%TO.P,MCU1,14*%
%TO.N,P010*%
X240782500Y-111497500D03*
%TO.P,MCU1,15*%
%TO.N,P111*%
X240782500Y-108957500D03*
%TO.P,MCU1,16*%
%TO.N,P113*%
X240782500Y-106417500D03*
%TO.P,MCU1,17*%
%TO.N,P115*%
X240782500Y-103877500D03*
%TO.P,MCU1,18*%
%TO.N,P002*%
X240782500Y-101337500D03*
%TO.P,MCU1,19*%
%TO.N,P029*%
X240782500Y-98797500D03*
%TO.P,MCU1,20*%
%TO.N,P031*%
X240782500Y-96257500D03*
%TO.P,MCU1,21*%
%TO.N,VCC*%
X240782500Y-93717500D03*
%TO.P,MCU1,22*%
%TO.N,RST*%
X240782500Y-91177500D03*
%TO.P,MCU1,23*%
%TO.N,GND*%
X240782500Y-88637500D03*
%TO.P,MCU1,24*%
%TO.N,RAW*%
X240782500Y-86097500D03*
%TO.P,MCU1,31*%
%TO.N,P101*%
X243322500Y-108957500D03*
%TO.P,MCU1,32*%
%TO.N,P102*%
X245862500Y-108957500D03*
%TO.P,MCU1,33*%
%TO.N,P107*%
X248402500Y-108957500D03*
%TD*%
D10*
%TO.P,S14,1*%
%TO.N,P011*%
X188812500Y-82320000D03*
X193892500Y-82320000D03*
%TO.P,S14,2*%
%TO.N,middle_top*%
X187542500Y-84860000D03*
X195162500Y-84860000D03*
%TD*%
%TO.P,S9,1*%
%TO.N,P100*%
X169812500Y-124320000D03*
X174892500Y-124320000D03*
%TO.P,S9,2*%
%TO.N,ring_low*%
X168542500Y-126860000D03*
X176162500Y-126860000D03*
%TD*%
%TO.P,S8,1*%
%TO.N,P024*%
X149810000Y-90320000D03*
X154890000Y-90320000D03*
%TO.P,S8,2*%
%TO.N,pinky_top*%
X148540000Y-92860000D03*
X156160000Y-92860000D03*
%TD*%
D22*
%TO.P,D23,1*%
%TO.N,P113*%
X252789669Y-158201672D03*
D23*
X251911117Y-160174930D03*
%TO.P,D23,2*%
%TO.N,space_layerkey*%
X250568887Y-163189630D03*
D13*
X249690335Y-165162888D03*
%TD*%
D24*
%TO.N,P022*%
X136697480Y-90320000D02*
X139656900Y-93279420D01*
X244362190Y-118000000D02*
X250000000Y-112362190D01*
X137506446Y-128320000D02*
X139656900Y-130470454D01*
X136697480Y-109320000D02*
X139656900Y-112279420D01*
X250000000Y-112362190D02*
X250000000Y-107360000D01*
X250000000Y-107360000D02*
X256022500Y-101337500D01*
X240637810Y-118000000D02*
X244362190Y-118000000D01*
X139656900Y-112279420D02*
X139656900Y-124553100D01*
X180000000Y-79000000D02*
X198353000Y-79000000D01*
X139656900Y-124553100D02*
X135890000Y-128320000D01*
X135890000Y-90320000D02*
X136697480Y-90320000D01*
X239580200Y-116942390D02*
X240637810Y-118000000D01*
X198353000Y-79000000D02*
X201000000Y-81647000D01*
X135890000Y-90320000D02*
X141210000Y-85000000D01*
X177000000Y-82000000D02*
X180000000Y-79000000D01*
X166000000Y-85000000D02*
X169000000Y-82000000D01*
X139656900Y-93279420D02*
X139656900Y-105553100D01*
X139656900Y-105553100D02*
X135890000Y-109320000D01*
X201000000Y-81647000D02*
X233284810Y-81647000D01*
X169000000Y-82000000D02*
X177000000Y-82000000D01*
X141210000Y-85000000D02*
X166000000Y-85000000D01*
X239580200Y-87942390D02*
X239580200Y-116942390D01*
X135890000Y-128320000D02*
X137506446Y-128320000D01*
X139656900Y-130470454D02*
X139656900Y-143553100D01*
X139656900Y-143553100D02*
X135890000Y-147320000D01*
X135890000Y-109320000D02*
X136697480Y-109320000D01*
X233284810Y-81647000D02*
X239580200Y-87942390D01*
%TO.N,pinkyfar_mod*%
X129540000Y-149860000D02*
X137160000Y-149860000D01*
X129540000Y-157400000D02*
X131700000Y-157400000D01*
%TO.N,pinkyfar_low*%
X137160000Y-130860000D02*
X129540000Y-130860000D01*
X129540000Y-138400000D02*
X131700000Y-138400000D01*
%TO.N,pinkyfar_home*%
X129540000Y-111860000D02*
X137160000Y-111860000D01*
X131700000Y-119400000D02*
X129540000Y-119400000D01*
%TO.N,pinkyfar_top*%
X129540000Y-100400000D02*
X131700000Y-100400000D01*
X129540000Y-92860000D02*
X137160000Y-92860000D01*
%TO.N,P024*%
X244451000Y-118549000D02*
X252000000Y-111000000D01*
X154890000Y-90320000D02*
X159210000Y-86000000D01*
X252000000Y-107900000D02*
X256022500Y-103877500D01*
X155697480Y-90320000D02*
X158656900Y-93279420D01*
X158656900Y-143553100D02*
X154890000Y-147320000D01*
X154890000Y-90320000D02*
X155697480Y-90320000D01*
X177574690Y-83000000D02*
X181025690Y-79549000D01*
X233098000Y-82098000D02*
X239000000Y-88000000D01*
X166000000Y-86000000D02*
X169000000Y-83000000D01*
X200735810Y-82098000D02*
X233098000Y-82098000D01*
X154890000Y-128320000D02*
X156506446Y-128320000D01*
X198186810Y-79549000D02*
X200735810Y-82098000D01*
X159000000Y-124210000D02*
X154890000Y-128320000D01*
X158656900Y-93279420D02*
X158656900Y-105553100D01*
X159210000Y-86000000D02*
X166000000Y-86000000D01*
X156506446Y-109320000D02*
X159000000Y-111813554D01*
X181025690Y-79549000D02*
X198186810Y-79549000D01*
X169000000Y-83000000D02*
X177574690Y-83000000D01*
X154890000Y-109320000D02*
X156506446Y-109320000D01*
X159000000Y-111813554D02*
X159000000Y-124210000D01*
X156506446Y-128320000D02*
X158656900Y-130470454D01*
X158656900Y-130470454D02*
X158656900Y-143553100D01*
X252000000Y-111000000D02*
X252000000Y-107900000D01*
X158656900Y-105553100D02*
X154890000Y-109320000D01*
X239000000Y-88000000D02*
X239000000Y-117000000D01*
X239000000Y-117000000D02*
X240549000Y-118549000D01*
X240549000Y-118549000D02*
X244451000Y-118549000D01*
%TO.N,pinky_mod*%
X156160000Y-149860000D02*
X148540000Y-149860000D01*
X148540000Y-157400000D02*
X150700000Y-157400000D01*
%TO.N,pinky_low*%
X148540000Y-138400000D02*
X150700000Y-138400000D01*
X148540000Y-130860000D02*
X156160000Y-130860000D01*
%TO.N,pinky_home*%
X148540000Y-119400000D02*
X150700000Y-119400000D01*
X148540000Y-111860000D02*
X156160000Y-111860000D01*
%TO.N,pinky_top*%
X148540000Y-100400000D02*
X150700000Y-100400000D01*
X148540000Y-92860000D02*
X156160000Y-92860000D01*
%TO.N,P100*%
X238353000Y-117077380D02*
X240275620Y-119000000D01*
X174892500Y-105320000D02*
X176508946Y-105320000D01*
X174892500Y-86320000D02*
X181212500Y-80000000D01*
X175699980Y-86320000D02*
X179000000Y-89620020D01*
X179000000Y-89620020D02*
X179000000Y-101212500D01*
X252862190Y-110862190D02*
X252862190Y-109577810D01*
X178659400Y-107470454D02*
X178659400Y-120553100D01*
X240275620Y-119000000D02*
X244724380Y-119000000D01*
X181212500Y-80000000D02*
X198000000Y-80000000D01*
X238000000Y-87637810D02*
X238000000Y-98000000D01*
X238000000Y-98000000D02*
X238353000Y-98353000D01*
X244724380Y-119000000D02*
X252862190Y-110862190D01*
X252862190Y-109577810D02*
X256022500Y-106417500D01*
X176508946Y-105320000D02*
X178659400Y-107470454D01*
X198000000Y-80000000D02*
X200549000Y-82549000D01*
X200549000Y-82549000D02*
X232911190Y-82549000D01*
X179000000Y-101212500D02*
X174892500Y-105320000D01*
X174892500Y-86320000D02*
X175699980Y-86320000D01*
X178659400Y-120553100D02*
X174892500Y-124320000D01*
X232911190Y-82549000D02*
X238000000Y-87637810D01*
X238353000Y-98353000D02*
X238353000Y-117077380D01*
%TO.N,ring_low*%
X176162500Y-126860000D02*
X168542500Y-126860000D01*
X168542500Y-134400000D02*
X170702500Y-134400000D01*
%TO.N,ring_home*%
X176162500Y-107860000D02*
X168542500Y-107860000D01*
X168542500Y-115400000D02*
X170702500Y-115400000D01*
%TO.N,ring_top*%
X168542500Y-88860000D02*
X176162500Y-88860000D01*
X170702500Y-96400000D02*
X168542500Y-96400000D01*
%TO.N,P011*%
X244813190Y-119549000D02*
X255404690Y-108957500D01*
X237549000Y-88549000D02*
X237549000Y-98186810D01*
X204045600Y-128856654D02*
X204045600Y-150143100D01*
X237902000Y-98539810D02*
X237902000Y-117264190D01*
X199362190Y-82000000D02*
X200362190Y-83000000D01*
X195508946Y-120320000D02*
X204045600Y-128856654D01*
X197659400Y-84470454D02*
X197659400Y-97553100D01*
X197659400Y-97553100D02*
X193892500Y-101320000D01*
X194212500Y-82000000D02*
X199362190Y-82000000D01*
X232000000Y-83000000D02*
X237549000Y-88549000D01*
X197659400Y-103470454D02*
X197659400Y-116553100D01*
X193892500Y-82320000D02*
X194212500Y-82000000D01*
X193892500Y-101320000D02*
X195508946Y-101320000D01*
X193892500Y-82320000D02*
X195508946Y-82320000D01*
X195508946Y-101320000D02*
X197659400Y-103470454D01*
X255404690Y-108957500D02*
X256022500Y-108957500D01*
X240186810Y-119549000D02*
X244813190Y-119549000D01*
X195508946Y-82320000D02*
X197659400Y-84470454D01*
X237549000Y-98186810D02*
X237902000Y-98539810D01*
X200362190Y-83000000D02*
X232000000Y-83000000D01*
X193892500Y-120320000D02*
X195508946Y-120320000D01*
X204045600Y-150143100D02*
X205222500Y-151320000D01*
X197659400Y-116553100D02*
X193892500Y-120320000D01*
X237902000Y-117264190D02*
X240186810Y-119549000D01*
%TO.N,middle_low*%
X187542500Y-122860000D02*
X195162500Y-122860000D01*
X187542500Y-130400000D02*
X189702500Y-130400000D01*
%TO.N,middle_home*%
X187542500Y-111400000D02*
X189702500Y-111400000D01*
X187542500Y-103860000D02*
X195162500Y-103860000D01*
%TO.N,middle_top*%
X187542500Y-92400000D02*
X189702500Y-92400000D01*
X187542500Y-84860000D02*
X195162500Y-84860000D01*
%TO.N,P104*%
X237451000Y-98726620D02*
X237451000Y-117451000D01*
X214761500Y-83451000D02*
X231813190Y-83451000D01*
X223045600Y-131856654D02*
X223045600Y-149933164D01*
X253502500Y-111497500D02*
X256022500Y-111497500D01*
X212892500Y-85320000D02*
X213699980Y-85320000D01*
X214508946Y-123320000D02*
X223045600Y-131856654D01*
X245000000Y-120000000D02*
X253502500Y-111497500D01*
X212892500Y-104320000D02*
X213699980Y-104320000D01*
X213699980Y-104320000D02*
X216659400Y-107279420D01*
X213699980Y-85320000D02*
X216659400Y-88279420D01*
X212892500Y-123320000D02*
X214508946Y-123320000D01*
X216659400Y-88279420D02*
X216659400Y-100553100D01*
X216659400Y-107279420D02*
X216659400Y-119553100D01*
X223045600Y-149933164D02*
X226775187Y-153662751D01*
X237451000Y-117451000D02*
X240000000Y-120000000D01*
X237098000Y-98373620D02*
X237451000Y-98726620D01*
X231813190Y-83451000D02*
X237098000Y-88735810D01*
X237098000Y-88735810D02*
X237098000Y-98373620D01*
X216659400Y-100553100D02*
X212892500Y-104320000D01*
X212892500Y-85320000D02*
X214761500Y-83451000D01*
X216659400Y-119553100D02*
X212892500Y-123320000D01*
X240000000Y-120000000D02*
X245000000Y-120000000D01*
%TO.N,index_low*%
X206542500Y-133400000D02*
X208702500Y-133400000D01*
X206542500Y-125860000D02*
X214162500Y-125860000D01*
%TO.N,index_home*%
X206542500Y-114400000D02*
X208702500Y-114400000D01*
X206542500Y-106860000D02*
X214162500Y-106860000D01*
%TO.N,index_top*%
X206542500Y-87860000D02*
X214162500Y-87860000D01*
X206542500Y-95400000D02*
X208702500Y-95400000D01*
%TO.N,P106*%
X231892500Y-126320000D02*
X233508946Y-126320000D01*
X236647000Y-91647000D02*
X233320000Y-88320000D01*
X233320000Y-88320000D02*
X231892500Y-88320000D01*
X235659400Y-109470454D02*
X235659400Y-122553100D01*
X233508946Y-126320000D02*
X243064575Y-135875629D01*
X251962501Y-114037500D02*
X245000001Y-121000000D01*
X237000000Y-98913430D02*
X236647000Y-98560430D01*
X240000000Y-121000000D02*
X237000000Y-118000000D01*
X231892500Y-103314930D02*
X236647000Y-98560430D01*
X233508946Y-107320000D02*
X235659400Y-109470454D01*
X235659400Y-122553100D02*
X231892500Y-126320000D01*
X256022500Y-114037500D02*
X251962501Y-114037500D01*
X243064575Y-135875629D02*
X243064575Y-155261969D01*
X231892500Y-107320000D02*
X233508946Y-107320000D01*
X237000000Y-118000000D02*
X237000000Y-98913430D01*
X231892500Y-107320000D02*
X231892500Y-103314930D01*
X236647000Y-98560430D02*
X236647000Y-91647000D01*
X226812500Y-88320000D02*
X227624045Y-88320000D01*
X245000001Y-121000000D02*
X240000000Y-121000000D01*
%TO.N,indexfar_low*%
X225542500Y-128860000D02*
X233162500Y-128860000D01*
X225542500Y-136400000D02*
X227702500Y-136400000D01*
%TO.N,indexfar_home*%
X225542500Y-117400000D02*
X227702500Y-117400000D01*
X225542500Y-109860000D02*
X233162500Y-109860000D01*
%TO.N,indexfar_top*%
X225542500Y-98400000D02*
X227702500Y-98400000D01*
X225542500Y-90860000D02*
X233162500Y-90860000D01*
%TO.N,layer2_layerkey*%
X206492500Y-153860000D02*
X198872500Y-153860000D01*
X198872500Y-161400000D02*
X201032500Y-161400000D01*
%TO.N,layer1_layerkey*%
X218771283Y-162486947D02*
X220523388Y-162486947D01*
X220523388Y-162486947D02*
X220898469Y-162862028D01*
X220080592Y-155061497D02*
X226261628Y-155061497D01*
X226261628Y-155061497D02*
X227584827Y-156384696D01*
%TO.N,space_layerkey*%
X250568887Y-164284336D02*
X249690335Y-165162888D01*
X242802203Y-158234211D02*
X242802203Y-162096094D01*
X250568887Y-163189630D02*
X250568887Y-164284336D01*
X245901536Y-155134878D02*
X242802203Y-158234211D01*
%TO.N,RAW*%
X259000000Y-85000000D02*
X257000000Y-83000000D01*
X257000000Y-83000000D02*
X243880000Y-83000000D01*
X243880000Y-83000000D02*
X240782500Y-86097500D01*
X259000000Y-92461500D02*
X259000000Y-85000000D01*
X260688500Y-94150000D02*
X259000000Y-92461500D01*
%TO.N,GND*%
X243322500Y-91177500D02*
X240782500Y-88637500D01*
X256022500Y-91177500D02*
X243322500Y-91177500D01*
%TO.N,P029*%
X193002500Y-92400000D02*
X195162500Y-92400000D01*
X212002500Y-95400000D02*
X214162500Y-95400000D01*
X135000000Y-100400000D02*
X137160000Y-100400000D01*
X231002500Y-98400000D02*
X233162500Y-98400000D01*
X174002500Y-96400000D02*
X176162500Y-96400000D01*
X154000000Y-100400000D02*
X156160000Y-100400000D01*
%TO.N,P002*%
X212002500Y-114400000D02*
X214162500Y-114400000D01*
X174002500Y-115400000D02*
X176162500Y-115400000D01*
X154000000Y-119400000D02*
X156160000Y-119400000D01*
X135000000Y-119400000D02*
X137160000Y-119400000D01*
X231002500Y-117400000D02*
X233162500Y-117400000D01*
X193002500Y-111400000D02*
X195162500Y-111400000D01*
%TO.N,P115*%
X212002500Y-133400000D02*
X214162500Y-133400000D01*
X193002500Y-130400000D02*
X195162500Y-130400000D01*
X135000000Y-138400000D02*
X137160000Y-138400000D01*
X231002500Y-136400000D02*
X233162500Y-136400000D01*
X154000000Y-138400000D02*
X156160000Y-138400000D01*
X174002500Y-134400000D02*
X176162500Y-134400000D01*
%TO.N,P113*%
X224148335Y-163435066D02*
X225900440Y-163435066D01*
X135000000Y-157400000D02*
X137160000Y-157400000D01*
X154000000Y-157400000D02*
X156160000Y-157400000D01*
X252789669Y-158201672D02*
X252789669Y-159296378D01*
X252789669Y-159296378D02*
X251911117Y-160174930D01*
X204332500Y-161400000D02*
X206492500Y-161400000D01*
X225900440Y-163435066D02*
X226275521Y-163810147D01*
%TO.N,pos*%
X263274500Y-94557860D02*
X263274500Y-95790000D01*
X256000000Y-122000000D02*
X251000000Y-117000000D01*
X260688500Y-91971860D02*
X263274500Y-94557860D01*
X259000000Y-122000000D02*
X256000000Y-122000000D01*
X262763500Y-118236500D02*
X259000000Y-122000000D01*
X260688500Y-91150000D02*
X260688500Y-91971860D01*
X262763500Y-96301000D02*
X262763500Y-118236500D01*
X263274500Y-95790000D02*
X262763500Y-96301000D01*
%TD*%
M02*
