%TF.GenerationSoftware,KiCad,Pcbnew,9.0.2*%
%TF.CreationDate,2025-06-03T16:56:12+08:00*%
%TF.ProjectId,experiment,65787065-7269-46d6-956e-742e6b696361,v1.0.0*%
%TF.SameCoordinates,Original*%
%TF.FileFunction,Paste,Bot*%
%TF.FilePolarity,Positive*%
%FSLAX46Y46*%
G04 Gerber Fmt 4.6, Leading zero omitted, Abs format (unit mm)*
G04 Created by KiCad (PCBNEW 9.0.2) date 2025-06-03 16:56:12*
%MOMM*%
%LPD*%
G01*
G04 APERTURE LIST*
G04 Aperture macros list*
%AMRotRect*
0 Rectangle, with rotation*
0 The origin of the aperture is its center*
0 $1 length*
0 $2 width*
0 $3 Rotation angle, in degrees counterclockwise*
0 Add horizontal line*
21,1,$1,$2,0,0,$3*%
G04 Aperture macros list end*
%ADD10R,0.900000X1.200000*%
%ADD11R,0.800000X1.000000*%
%ADD12R,1.500000X0.700000*%
%ADD13RotRect,0.900000X1.200000X170.000000*%
%ADD14RotRect,0.900000X1.200000X246.000000*%
G04 APERTURE END LIST*
D10*
%TO.C,D20*%
X231002500Y-98400000D03*
X227702500Y-98400000D03*
%TD*%
%TO.C,D5*%
X154000000Y-157400000D03*
X150700000Y-157400000D03*
%TD*%
%TO.C,D10*%
X174002500Y-115400000D03*
X170702500Y-115400000D03*
%TD*%
%TO.C,D8*%
X154000000Y-100400000D03*
X150700000Y-100400000D03*
%TD*%
D11*
%TO.C,T1*%
X261338500Y-97050000D03*
X263548500Y-97050000D03*
D12*
X260688500Y-95650000D03*
D11*
X261338500Y-89750000D03*
X263548500Y-89750000D03*
D12*
X260688500Y-91150000D03*
X260688500Y-94150000D03*
%TD*%
D10*
%TO.C,D17*%
X212002500Y-95400000D03*
X208702500Y-95400000D03*
%TD*%
%TO.C,D4*%
X135000000Y-100400000D03*
X131700000Y-100400000D03*
%TD*%
%TO.C,D12*%
X193002500Y-130400000D03*
X189702500Y-130400000D03*
%TD*%
%TO.C,D15*%
X212002500Y-133400000D03*
X208702500Y-133400000D03*
%TD*%
%TO.C,D18*%
X231002500Y-136400000D03*
X227702500Y-136400000D03*
%TD*%
%TO.C,D11*%
X174002500Y-96400000D03*
X170702500Y-96400000D03*
%TD*%
%TO.C,D13*%
X193002500Y-111400000D03*
X189702500Y-111400000D03*
%TD*%
%TO.C,D19*%
X231002500Y-117400000D03*
X227702500Y-117400000D03*
%TD*%
%TO.C,D3*%
X135000000Y-119400000D03*
X131700000Y-119400000D03*
%TD*%
%TO.C,D14*%
X193002500Y-92400000D03*
X189702500Y-92400000D03*
%TD*%
D13*
%TO.C,D22*%
X224148335Y-163435066D03*
X220898469Y-162862028D03*
%TD*%
D10*
%TO.C,D9*%
X174002500Y-134400000D03*
X170702500Y-134400000D03*
%TD*%
%TO.C,D2*%
X135000000Y-138400000D03*
X131700000Y-138400000D03*
%TD*%
%TO.C,D16*%
X212002500Y-114400000D03*
X208702500Y-114400000D03*
%TD*%
%TO.C,D7*%
X154000000Y-119400000D03*
X150700000Y-119400000D03*
%TD*%
%TO.C,D21*%
X204332500Y-161400000D03*
X201032500Y-161400000D03*
%TD*%
%TO.C,D1*%
X135000000Y-157400000D03*
X131700000Y-157400000D03*
%TD*%
%TO.C,D6*%
X154000000Y-138400000D03*
X150700000Y-138400000D03*
%TD*%
D14*
%TO.C,D23*%
X251911117Y-160174930D03*
X250568887Y-163189630D03*
%TD*%
M02*
