%TF.GenerationSoftware,KiCad,Pcbnew,9.0.2*%
%TF.CreationDate,2025-06-03T16:56:12+08:00*%
%TF.ProjectId,experiment,65787065-7269-46d6-956e-742e6b696361,v1.0.0*%
%TF.SameCoordinates,Original*%
%TF.FileFunction,Profile,NP*%
%FSLAX46Y46*%
G04 Gerber Fmt 4.6, Leading zero omitted, Abs format (unit mm)*
G04 Created by KiCad (PCBNEW 9.0.2) date 2025-06-03 16:56:12*
%MOMM*%
%LPD*%
G01*
G04 APERTURE LIST*
%TA.AperFunction,Profile*%
%ADD10C,0.150000*%
%TD*%
G04 APERTURE END LIST*
D10*
X126825000Y-163925000D02*
G75*
G02*
X121825000Y-158925000I0J5000000D01*
G01*
X180348110Y-75875000D02*
X202485193Y-75875000D01*
X259793305Y-80000001D02*
G75*
G02*
X264436796Y-85417724I-351405J-4999999D01*
G01*
X252024656Y-175962241D02*
G75*
G02*
X245850099Y-178663395I-4567756J2033641D01*
G01*
X222092757Y-78890166D02*
X259793305Y-80000000D01*
X202485193Y-75875000D02*
G75*
G02*
X203265006Y-75936183I7J-5000100D01*
G01*
X213586608Y-167875657D02*
X164072742Y-163940715D01*
X203265006Y-75936185D02*
X221664350Y-78841345D01*
X121825000Y-88388439D02*
G75*
G02*
X126314888Y-83414529I5000000J-1D01*
G01*
X163676634Y-163925000D02*
G75*
G02*
X164072742Y-163940719I-34J-4999600D01*
G01*
X161085332Y-79820719D02*
G75*
G02*
X160565392Y-79901877I-1030032J4892819D01*
G01*
X126314888Y-83414528D02*
X160565392Y-79901881D01*
X213586608Y-167875657D02*
G75*
G02*
X214797309Y-168125162I-396108J-4984243D01*
G01*
X179318058Y-75982251D02*
G75*
G02*
X180348110Y-75875002I1030042J-4892749D01*
G01*
X263803664Y-149506156D02*
X252024656Y-175962241D01*
X222092757Y-78890166D02*
G75*
G02*
X221664350Y-78841346I351343J4987266D01*
G01*
X161085332Y-79820720D02*
X179318057Y-75982251D01*
X264436795Y-85417727D02*
X264235908Y-147489370D01*
X245850118Y-178663340D02*
X214797310Y-168125160D01*
X163676634Y-163925000D02*
X126825000Y-163925000D01*
X121825000Y-158925000D02*
X121825000Y-88388439D01*
X264235908Y-147489370D02*
G75*
G02*
X263803677Y-149506162I-5000008J16870D01*
G01*
M02*
