%TF.GenerationSoftware,KiCad,Pcbnew,9.0.2*%
%TF.CreationDate,2025-06-03T16:56:12+08:00*%
%TF.ProjectId,experiment,65787065-7269-46d6-956e-742e6b696361,v1.0.0*%
%TF.SameCoordinates,Original*%
%TF.FileFunction,Soldermask,Top*%
%TF.FilePolarity,Negative*%
%FSLAX46Y46*%
G04 Gerber Fmt 4.6, Leading zero omitted, Abs format (unit mm)*
G04 Created by KiCad (PCBNEW 9.0.2) date 2025-06-03 16:56:12*
%MOMM*%
%LPD*%
G01*
G04 APERTURE LIST*
G04 Aperture macros list*
%AMRoundRect*
0 Rectangle with rounded corners*
0 $1 Rounding radius*
0 $2 $3 $4 $5 $6 $7 $8 $9 X,Y pos of 4 corners*
0 Add a 4 corners polygon primitive as box body*
4,1,4,$2,$3,$4,$5,$6,$7,$8,$9,$2,$3,0*
0 Add four circle primitives for the rounded corners*
1,1,$1+$1,$2,$3*
1,1,$1+$1,$4,$5*
1,1,$1+$1,$6,$7*
1,1,$1+$1,$8,$9*
0 Add four rect primitives between the rounded corners*
20,1,$1+$1,$2,$3,$4,$5,0*
20,1,$1+$1,$4,$5,$6,$7,0*
20,1,$1+$1,$6,$7,$8,$9,0*
20,1,$1+$1,$8,$9,$2,$3,0*%
G04 Aperture macros list end*
%ADD10C,1.801800*%
%ADD11C,4.087800*%
%ADD12C,2.386000*%
%ADD13RoundRect,0.050000X0.889000X0.889000X-0.889000X0.889000X-0.889000X-0.889000X0.889000X-0.889000X0*%
%ADD14RoundRect,0.050000X0.450000X0.600000X-0.450000X0.600000X-0.450000X-0.600000X0.450000X-0.600000X0*%
%ADD15C,2.005000*%
%ADD16RoundRect,0.050000X0.400000X-0.500000X0.400000X0.500000X-0.400000X0.500000X-0.400000X-0.500000X0*%
%ADD17C,1.000000*%
%ADD18RoundRect,0.050000X0.750000X-0.350000X0.750000X0.350000X-0.750000X0.350000X-0.750000X-0.350000X0*%
%ADD19RoundRect,0.270833X-0.379167X-0.654167X0.379167X-0.654167X0.379167X0.654167X-0.379167X0.654167X0*%
%ADD20O,1.300000X1.850000*%
%ADD21RoundRect,0.050000X1.029867X0.721121X-0.721121X1.029867X-1.029867X-0.721121X0.721121X-1.029867X0*%
%ADD22RoundRect,0.050000X0.547352X0.512743X-0.338975X0.669026X-0.547352X-0.512743X0.338975X-0.669026X0*%
%ADD23RoundRect,0.050000X-0.700000X0.750000X-0.700000X-0.750000X0.700000X-0.750000X0.700000X0.750000X0*%
%ADD24C,1.852600*%
%ADD25RoundRect,0.050000X-0.450553X1.173731X-1.173731X-0.450553X0.450553X-1.173731X1.173731X0.450553X0*%
%ADD26RoundRect,0.050000X-0.365096X0.655137X-0.731159X-0.167053X0.365096X-0.655137X0.731159X0.167053X0*%
G04 APERTURE END LIST*
D10*
%TO.C,S3*%
X128270000Y-114400000D03*
D11*
X133350000Y-114400000D03*
D10*
X138430000Y-114400000D03*
D12*
X130810000Y-109320000D03*
X135890000Y-109320000D03*
X129540000Y-111860000D03*
X137160000Y-111860000D03*
%TD*%
D10*
%TO.C,S7*%
X147270000Y-114400000D03*
D11*
X152350000Y-114400000D03*
D10*
X157430000Y-114400000D03*
D12*
X149810000Y-109320000D03*
X154890000Y-109320000D03*
X148540000Y-111860000D03*
X156160000Y-111860000D03*
%TD*%
D10*
%TO.C,S13*%
X186272500Y-106400000D03*
D11*
X191352500Y-106400000D03*
D10*
X196432500Y-106400000D03*
D12*
X188812500Y-101320000D03*
X193892500Y-101320000D03*
X187542500Y-103860000D03*
X195162500Y-103860000D03*
%TD*%
D13*
%TO.C,D20*%
X233162500Y-98400000D03*
D14*
X231002500Y-98400000D03*
X227702500Y-98400000D03*
D15*
X225542500Y-98400000D03*
%TD*%
D13*
%TO.C,D5*%
X156160000Y-157400000D03*
D14*
X154000000Y-157400000D03*
X150700000Y-157400000D03*
D15*
X148540000Y-157400000D03*
%TD*%
D10*
%TO.C,S12*%
X186272500Y-125400000D03*
D11*
X191352500Y-125400000D03*
D10*
X196432500Y-125400000D03*
D12*
X188812500Y-120320000D03*
X193892500Y-120320000D03*
X187542500Y-122860000D03*
X195162500Y-122860000D03*
%TD*%
D13*
%TO.C,D10*%
X176162500Y-115400000D03*
D14*
X174002500Y-115400000D03*
X170702500Y-115400000D03*
D15*
X168542500Y-115400000D03*
%TD*%
D13*
%TO.C,D8*%
X156160000Y-100400000D03*
D14*
X154000000Y-100400000D03*
X150700000Y-100400000D03*
D15*
X148540000Y-100400000D03*
%TD*%
D16*
%TO.C,T1*%
X261338500Y-97050000D03*
X263548500Y-97050000D03*
D17*
X262448500Y-94900000D03*
X262448500Y-94900000D03*
X262448500Y-91900000D03*
X262448500Y-91900000D03*
D18*
X260688500Y-91150000D03*
D16*
X261338500Y-89750000D03*
X263548500Y-89750000D03*
D18*
X260688500Y-95650000D03*
X260688500Y-92650000D03*
%TD*%
D10*
%TO.C,S19*%
X224272500Y-112400000D03*
D11*
X229352500Y-112400000D03*
D10*
X234432500Y-112400000D03*
D12*
X226812500Y-107320000D03*
X231892500Y-107320000D03*
X225542500Y-109860000D03*
X233162500Y-109860000D03*
%TD*%
D13*
%TO.C,D17*%
X214162500Y-95400000D03*
D14*
X212002500Y-95400000D03*
X208702500Y-95400000D03*
D15*
X206542500Y-95400000D03*
%TD*%
D10*
%TO.C,S1*%
X128270000Y-152400000D03*
D11*
X133350000Y-152400000D03*
D10*
X138430000Y-152400000D03*
D12*
X130810000Y-147320000D03*
X135890000Y-147320000D03*
X129540000Y-149860000D03*
X137160000Y-149860000D03*
%TD*%
D10*
%TO.C,S17*%
X205272500Y-90400000D03*
D11*
X210352500Y-90400000D03*
D10*
X215432500Y-90400000D03*
D12*
X207812500Y-85320000D03*
X212892500Y-85320000D03*
X206542500Y-87860000D03*
X214162500Y-87860000D03*
%TD*%
D10*
%TO.C,S11*%
X167272500Y-91400000D03*
D11*
X172352500Y-91400000D03*
D10*
X177432500Y-91400000D03*
D12*
X169812500Y-86320000D03*
X174892500Y-86320000D03*
X168542500Y-88860000D03*
X176162500Y-88860000D03*
%TD*%
D13*
%TO.C,D4*%
X137160000Y-100400000D03*
D14*
X135000000Y-100400000D03*
X131700000Y-100400000D03*
D15*
X129540000Y-100400000D03*
%TD*%
D13*
%TO.C,D12*%
X195162500Y-130400000D03*
D14*
X193002500Y-130400000D03*
X189702500Y-130400000D03*
D15*
X187542500Y-130400000D03*
%TD*%
D10*
%TO.C,S16*%
X205272500Y-109400000D03*
D11*
X210352500Y-109400000D03*
D10*
X215432500Y-109400000D03*
D12*
X207812500Y-104320000D03*
X212892500Y-104320000D03*
X206542500Y-106860000D03*
X214162500Y-106860000D03*
%TD*%
D10*
%TO.C,S21*%
X197602500Y-156400000D03*
D11*
X202682500Y-156400000D03*
D10*
X207762500Y-156400000D03*
D12*
X200142500Y-151320000D03*
X205222500Y-151320000D03*
X198872500Y-153860000D03*
X206492500Y-153860000D03*
%TD*%
D13*
%TO.C,D15*%
X214162500Y-133400000D03*
D14*
X212002500Y-133400000D03*
X208702500Y-133400000D03*
D15*
X206542500Y-133400000D03*
%TD*%
D10*
%TO.C,S20*%
X224272500Y-93400000D03*
D11*
X229352500Y-93400000D03*
D10*
X234432500Y-93400000D03*
D12*
X226812500Y-88320000D03*
X231892500Y-88320000D03*
X225542500Y-90860000D03*
X233162500Y-90860000D03*
%TD*%
D13*
%TO.C,D18*%
X233162500Y-136400000D03*
D14*
X231002500Y-136400000D03*
X227702500Y-136400000D03*
D15*
X225542500Y-136400000D03*
%TD*%
D13*
%TO.C,D11*%
X176162500Y-96400000D03*
D14*
X174002500Y-96400000D03*
X170702500Y-96400000D03*
D15*
X168542500Y-96400000D03*
%TD*%
D19*
%TO.C,_1*%
X251000000Y-117000000D03*
D20*
X253000000Y-117000000D03*
%TD*%
D13*
%TO.C,D13*%
X195162500Y-111400000D03*
D14*
X193002500Y-111400000D03*
X189702500Y-111400000D03*
D15*
X187542500Y-111400000D03*
%TD*%
D13*
%TO.C,D19*%
X233162500Y-117400000D03*
D14*
X231002500Y-117400000D03*
X227702500Y-117400000D03*
D15*
X225542500Y-117400000D03*
%TD*%
D13*
%TO.C,D3*%
X137160000Y-119400000D03*
D14*
X135000000Y-119400000D03*
X131700000Y-119400000D03*
D15*
X129540000Y-119400000D03*
%TD*%
D13*
%TO.C,D14*%
X195162500Y-92400000D03*
D14*
X193002500Y-92400000D03*
X189702500Y-92400000D03*
D15*
X187542500Y-92400000D03*
%TD*%
D21*
%TO.C,D22*%
X226275522Y-163810147D03*
D22*
X224148335Y-163435066D03*
X220898469Y-162862028D03*
D15*
X218771282Y-162486947D03*
%TD*%
D13*
%TO.C,D9*%
X176162500Y-134400000D03*
D14*
X174002500Y-134400000D03*
X170702500Y-134400000D03*
D15*
X168542500Y-134400000D03*
%TD*%
D13*
%TO.C,D2*%
X137160000Y-138400000D03*
D14*
X135000000Y-138400000D03*
X131700000Y-138400000D03*
D15*
X129540000Y-138400000D03*
%TD*%
D10*
%TO.C,S5*%
X147270000Y-152400000D03*
D11*
X152350000Y-152400000D03*
D10*
X157430000Y-152400000D03*
D12*
X149810000Y-147320000D03*
X154890000Y-147320000D03*
X148540000Y-149860000D03*
X156160000Y-149860000D03*
%TD*%
D13*
%TO.C,D16*%
X214162500Y-114400000D03*
D14*
X212002500Y-114400000D03*
X208702500Y-114400000D03*
D15*
X206542500Y-114400000D03*
%TD*%
D10*
%TO.C,S2*%
X128270000Y-133400000D03*
D11*
X133350000Y-133400000D03*
D10*
X138430000Y-133400000D03*
D12*
X130810000Y-128320000D03*
X135890000Y-128320000D03*
X129540000Y-130860000D03*
X137160000Y-130860000D03*
%TD*%
D13*
%TO.C,D7*%
X156160000Y-119400000D03*
D14*
X154000000Y-119400000D03*
X150700000Y-119400000D03*
D15*
X148540000Y-119400000D03*
%TD*%
D10*
%TO.C,S6*%
X147270000Y-133400000D03*
D11*
X152350000Y-133400000D03*
D10*
X157430000Y-133400000D03*
D12*
X149810000Y-128320000D03*
X154890000Y-128320000D03*
X148540000Y-130860000D03*
X156160000Y-130860000D03*
%TD*%
D10*
%TO.C,S10*%
X167272500Y-110400000D03*
D11*
X172352500Y-110400000D03*
D10*
X177432500Y-110400000D03*
D12*
X169812500Y-105320000D03*
X174892500Y-105320000D03*
X168542500Y-107860000D03*
X176162500Y-107860000D03*
%TD*%
D10*
%TO.C,S18*%
X224272500Y-131400000D03*
D11*
X229352500Y-131400000D03*
D10*
X234432500Y-131400000D03*
D12*
X226812500Y-126320000D03*
X231892500Y-126320000D03*
X225542500Y-128860000D03*
X233162500Y-128860000D03*
%TD*%
D10*
%TO.C,S15*%
X205272500Y-128400000D03*
D11*
X210352500Y-128400000D03*
D10*
X215432500Y-128400000D03*
D12*
X207812500Y-123320000D03*
X212892500Y-123320000D03*
X206542500Y-125860000D03*
X214162500Y-125860000D03*
%TD*%
D13*
%TO.C,D21*%
X206492500Y-161400000D03*
D14*
X204332500Y-161400000D03*
X201032500Y-161400000D03*
D15*
X198872500Y-161400000D03*
%TD*%
D23*
%TO.C,S24*%
X261737500Y-103485000D03*
X261737500Y-109985000D03*
%TD*%
D13*
%TO.C,D1*%
X137160000Y-157400000D03*
D14*
X135000000Y-157400000D03*
X131700000Y-157400000D03*
D15*
X129540000Y-157400000D03*
%TD*%
D13*
%TO.C,D6*%
X156160000Y-138400000D03*
D14*
X154000000Y-138400000D03*
X150700000Y-138400000D03*
D15*
X148540000Y-138400000D03*
%TD*%
D10*
%TO.C,S23*%
X244606053Y-164289408D03*
D11*
X246672275Y-159648597D03*
D10*
X248738497Y-155007786D03*
D12*
X240998353Y-159902780D03*
X243064575Y-155261969D03*
X242802203Y-162096094D03*
X245901536Y-155134878D03*
%TD*%
D10*
%TO.C,S4*%
X128270000Y-95400000D03*
D11*
X133350000Y-95400000D03*
D10*
X138430000Y-95400000D03*
D12*
X130810000Y-90320000D03*
X135890000Y-90320000D03*
X129540000Y-92860000D03*
X137160000Y-92860000D03*
%TD*%
D10*
%TO.C,S22*%
X218388820Y-157342375D03*
D11*
X223391643Y-158224508D03*
D10*
X228394466Y-159106641D03*
D12*
X221772364Y-152780618D03*
X226775187Y-153662751D03*
X220080592Y-155061497D03*
X227584827Y-156384696D03*
%TD*%
D24*
%TO.C,MCU1*%
X256022500Y-86097500D03*
X256022500Y-88637500D03*
X256022500Y-91177500D03*
X256022500Y-93717500D03*
X256022500Y-96257500D03*
X256022500Y-98797500D03*
X256022500Y-101337500D03*
X256022500Y-103877500D03*
X256022500Y-106417500D03*
X256022500Y-108957500D03*
X256022500Y-111497500D03*
X256022500Y-114037500D03*
X240782500Y-114037500D03*
X240782500Y-111497500D03*
X240782500Y-108957500D03*
X240782500Y-106417500D03*
X240782500Y-103877500D03*
X240782500Y-101337500D03*
X240782500Y-98797500D03*
X240782500Y-96257500D03*
X240782500Y-93717500D03*
X240782500Y-91177500D03*
X240782500Y-88637500D03*
X240782500Y-86097500D03*
X243322500Y-108957500D03*
X245862500Y-108957500D03*
X248402500Y-108957500D03*
%TD*%
D10*
%TO.C,S14*%
X186272500Y-87400000D03*
D11*
X191352500Y-87400000D03*
D10*
X196432500Y-87400000D03*
D12*
X188812500Y-82320000D03*
X193892500Y-82320000D03*
X187542500Y-84860000D03*
X195162500Y-84860000D03*
%TD*%
D10*
%TO.C,S9*%
X167272500Y-129400000D03*
D11*
X172352500Y-129400000D03*
D10*
X177432500Y-129400000D03*
D12*
X169812500Y-124320000D03*
X174892500Y-124320000D03*
X168542500Y-126860000D03*
X176162500Y-126860000D03*
%TD*%
D10*
%TO.C,S8*%
X147270000Y-95400000D03*
D11*
X152350000Y-95400000D03*
D10*
X157430000Y-95400000D03*
D12*
X149810000Y-90320000D03*
X154890000Y-90320000D03*
X148540000Y-92860000D03*
X156160000Y-92860000D03*
%TD*%
D25*
%TO.C,D23*%
X252789669Y-158201672D03*
D26*
X251911117Y-160174930D03*
X250568887Y-163189630D03*
D15*
X249690335Y-165162888D03*
%TD*%
M02*
