M48
; DRILL file {KiCad 9.0.2} date 2025-06-03T16:56:40+0800
; FORMAT={-:-/ absolute / metric / decimal}
; #@! TF.CreationDate,2025-06-03T16:56:40+08:00
; #@! TF.GenerationSoftware,Kicad,Pcbnew,9.0.2
; #@! TF.FileFunction,MixedPlating,1,2
FMAT,2
METRIC
; #@! TA.AperFunction,Plated,PTH,ComponentDrill
T1C0.300
; #@! TA.AperFunction,Plated,PTH,ComponentDrill
T2C0.750
; #@! TA.AperFunction,Plated,PTH,ComponentDrill
T3C0.991
; #@! TA.AperFunction,Plated,PTH,ComponentDrill
T4C1.092
; #@! TA.AperFunction,Plated,PTH,ComponentDrill
T5C1.499
; #@! TA.AperFunction,NonPlated,NPTH,ComponentDrill
T6C0.900
; #@! TA.AperFunction,NonPlated,NPTH,ComponentDrill
T7C1.702
; #@! TA.AperFunction,NonPlated,NPTH,ComponentDrill
T8C3.988
%
G90
G05
T1
X261.738Y-103.485
X261.738Y-109.985
T2
X251.0Y-117.0
X253.0Y-117.0
T3
X129.54Y-100.4
X129.54Y-119.4
X129.54Y-138.4
X129.54Y-157.4
X137.16Y-100.4
X137.16Y-119.4
X137.16Y-138.4
X137.16Y-157.4
X148.54Y-100.4
X148.54Y-119.4
X148.54Y-138.4
X148.54Y-157.4
X156.16Y-100.4
X156.16Y-119.4
X156.16Y-138.4
X156.16Y-157.4
X168.542Y-96.4
X168.542Y-115.4
X168.542Y-134.4
X176.162Y-96.4
X176.162Y-115.4
X176.162Y-134.4
X187.542Y-92.4
X187.542Y-111.4
X187.542Y-130.4
X195.162Y-92.4
X195.162Y-111.4
X195.162Y-130.4
X198.873Y-161.4
X206.492Y-161.4
X206.542Y-95.4
X206.542Y-114.4
X206.542Y-133.4
X214.162Y-95.4
X214.162Y-114.4
X214.162Y-133.4
X218.771Y-162.487
X225.542Y-98.4
X225.542Y-117.4
X225.542Y-136.4
X226.276Y-163.81
X233.162Y-98.4
X233.162Y-117.4
X233.162Y-136.4
X249.69Y-165.163
X252.79Y-158.202
T4
X240.782Y-86.097
X240.782Y-88.638
X240.782Y-91.177
X240.782Y-93.718
X240.782Y-96.257
X240.782Y-98.797
X240.782Y-101.337
X240.782Y-103.877
X240.782Y-106.417
X240.782Y-108.957
X240.782Y-111.497
X240.782Y-114.037
X243.322Y-108.957
X245.862Y-108.957
X248.402Y-108.957
X256.022Y-86.097
X256.022Y-88.638
X256.022Y-91.177
X256.022Y-93.718
X256.022Y-96.257
X256.022Y-98.797
X256.022Y-101.337
X256.022Y-103.877
X256.022Y-106.417
X256.022Y-108.957
X256.022Y-111.497
X256.022Y-114.037
T5
X129.54Y-92.86
X129.54Y-111.86
X129.54Y-130.86
X129.54Y-149.86
X130.81Y-90.32
X130.81Y-109.32
X130.81Y-128.32
X130.81Y-147.32
X135.89Y-90.32
X135.89Y-109.32
X135.89Y-128.32
X135.89Y-147.32
X137.16Y-92.86
X137.16Y-111.86
X137.16Y-130.86
X137.16Y-149.86
X148.54Y-92.86
X148.54Y-111.86
X148.54Y-130.86
X148.54Y-149.86
X149.81Y-90.32
X149.81Y-109.32
X149.81Y-128.32
X149.81Y-147.32
X154.89Y-90.32
X154.89Y-109.32
X154.89Y-128.32
X154.89Y-147.32
X156.16Y-92.86
X156.16Y-111.86
X156.16Y-130.86
X156.16Y-149.86
X168.542Y-88.86
X168.542Y-107.86
X168.542Y-126.86
X169.812Y-86.32
X169.812Y-105.32
X169.812Y-124.32
X174.892Y-86.32
X174.892Y-105.32
X174.892Y-124.32
X176.162Y-88.86
X176.162Y-107.86
X176.162Y-126.86
X187.542Y-84.86
X187.542Y-103.86
X187.542Y-122.86
X188.812Y-82.32
X188.812Y-101.32
X188.812Y-120.32
X193.892Y-82.32
X193.892Y-101.32
X193.892Y-120.32
X195.162Y-84.86
X195.162Y-103.86
X195.162Y-122.86
X198.873Y-153.86
X200.142Y-151.32
X205.222Y-151.32
X206.492Y-153.86
X206.542Y-87.86
X206.542Y-106.86
X206.542Y-125.86
X207.812Y-85.32
X207.812Y-104.32
X207.812Y-123.32
X212.892Y-85.32
X212.892Y-104.32
X212.892Y-123.32
X214.162Y-87.86
X214.162Y-106.86
X214.162Y-125.86
X220.081Y-155.061
X221.772Y-152.781
X225.542Y-90.86
X225.542Y-109.86
X225.542Y-128.86
X226.775Y-153.663
X226.812Y-88.32
X226.812Y-107.32
X226.812Y-126.32
X227.585Y-156.385
X231.892Y-88.32
X231.892Y-107.32
X231.892Y-126.32
X233.162Y-90.86
X233.162Y-109.86
X233.162Y-128.86
X240.998Y-159.903
X242.802Y-162.096
X243.065Y-155.262
X245.902Y-155.135
T6
X262.448Y-91.9
X262.448Y-91.9
X262.448Y-94.9
X262.448Y-94.9
T7
X128.27Y-95.4
X128.27Y-114.4
X128.27Y-133.4
X128.27Y-152.4
X138.43Y-95.4
X138.43Y-114.4
X138.43Y-133.4
X138.43Y-152.4
X147.27Y-95.4
X147.27Y-114.4
X147.27Y-133.4
X147.27Y-152.4
X157.43Y-95.4
X157.43Y-114.4
X157.43Y-133.4
X157.43Y-152.4
X167.272Y-91.4
X167.272Y-110.4
X167.272Y-129.4
X177.433Y-91.4
X177.433Y-110.4
X177.433Y-129.4
X186.272Y-87.4
X186.272Y-106.4
X186.272Y-125.4
X196.433Y-87.4
X196.433Y-106.4
X196.433Y-125.4
X197.602Y-156.4
X205.272Y-90.4
X205.272Y-109.4
X205.272Y-128.4
X207.762Y-156.4
X215.432Y-90.4
X215.432Y-109.4
X215.432Y-128.4
X218.389Y-157.342
X224.272Y-93.4
X224.272Y-112.4
X224.272Y-131.4
X228.394Y-159.107
X234.432Y-93.4
X234.432Y-112.4
X234.432Y-131.4
X244.606Y-164.289
X248.738Y-155.008
T8
X133.35Y-95.4
X133.35Y-114.4
X133.35Y-133.4
X133.35Y-152.4
X152.35Y-95.4
X152.35Y-114.4
X152.35Y-133.4
X152.35Y-152.4
X172.352Y-91.4
X172.352Y-110.4
X172.352Y-129.4
X191.352Y-87.4
X191.352Y-106.4
X191.352Y-125.4
X202.683Y-156.4
X210.352Y-90.4
X210.352Y-109.4
X210.352Y-128.4
X223.392Y-158.225
X229.352Y-93.4
X229.352Y-112.4
X229.352Y-131.4
X246.672Y-159.649
M30
